<svg xmlns="http://www.w3.org/2000/svg">
    <symbol id="notes" viewBox="0 0 512 512"><path style="fill:#F2F2F2;" d="M407,512H105C47.103,512,0,464.897,0,407V105C0,47.103,47.103,0,105,0h302
	c57.897,0,105,47.103,105,105v302C512,464.897,464.897,512,407,512z"/>
<path style="fill:#E5E5E5;" d="M407,0H256v512h151c57.897,0,105-47.103,105-105V105C512,47.103,464.897,0,407,0z"/>
<g>
	<circle style="fill:#CCCCCC;" cx="281" cy="190" r="15"/>
	<circle style="fill:#CCCCCC;" cx="331" cy="190" r="15"/>
	<circle style="fill:#CCCCCC;" cx="381" cy="190" r="15"/>
	<circle style="fill:#CCCCCC;" cx="431" cy="190" r="15"/>
	<circle style="fill:#CCCCCC;" cx="481" cy="190" r="15"/>
</g>
<g>
	<circle style="fill:#E5E5E5;" cx="231" cy="190" r="15"/>
	<circle style="fill:#E5E5E5;" cx="181" cy="190" r="15"/>
	<circle style="fill:#E5E5E5;" cx="131" cy="190" r="15"/>
	<circle style="fill:#E5E5E5;" cx="81" cy="190" r="15"/>
	<circle style="fill:#E5E5E5;" cx="31" cy="190" r="15"/>
</g>
<path style="fill:#FFDC40;" d="M512,105C512,47.103,464.897,0,407,0H105C47.103,0,0,47.103,0,105v40h512V105z"/>
<path style="fill:#FFAB15;" d="M407,0H256v145h256v-40C512,47.103,464.897,0,407,0z"/>
<g>
	<path style="fill:#E5E5E5;" d="M511.61,416H0.39c0.897,10.515,3.347,20.592,7.125,30h496.97
		C508.263,436.592,510.713,426.515,511.61,416z"/>
	<rect y="296" style="fill:#E5E5E5;" width="512" height="30"/>
</g>
<g>
	<path style="fill:#CCCCCC;" d="M256,446h248.485c3.777-9.408,6.228-19.485,7.125-30H256V446z"/>
	<rect x="256" y="296" style="fill:#CCCCCC;" width="256" height="30"/>
</g></symbol>
<symbol id="video" viewBox="0 0 512 512"><path style="fill:#F2F2F2;" d="M407,512H105C47.103,512,0,464.897,0,407V105C0,47.103,47.103,0,105,0h302
	c57.897,0,105,47.103,105,105v302C512,464.897,464.897,512,407,512z"/>
<path style="fill:#E5E5E5;" d="M407,0H256v512h151c57.897,0,105-47.103,105-105V105C512,47.103,464.897,0,407,0z"/>
<path style="fill:#4DFFE5;" d="M0,190v217c0,57.897,47.103,105,105,105h302c57.897,0,105-47.103,105-105V190H0z"/>
<path style="fill:#39E5D0;" d="M256,190v322h151c57.897,0,105-47.103,105-105V190H256z"/>
<path style="fill:#57565C;" d="M441.633,5.876L496.299,80h-96.724l-59-80h-74.277l59,80h-93.724l-59-80H105
	c-2.199,0-4.38,0.076-6.546,0.21L157.299,80H62.576L28.238,33.44C10.731,52.207,0,77.372,0,105v85h3.576l59-80H157.3l-59,80h74.277
	l59-80h93.724l-59,80h74.276l59-80h96.724l-59,80h37.276L512,139.255V105C512,59.234,482.564,20.219,441.633,5.876z"/>
<path style="fill:#3E3D42;" d="M441.633,5.876L496.299,80h-96.724l-59-80h-74.277l59,80H256v30h69.299l-59,80h74.276l59-80h96.724
	l-59,80h37.276L512,139.255V105C512,59.234,482.564,20.219,441.633,5.876z"/>
</symbol>
<symbol id="clock" viewBox="0 0 512 512"><path style="fill:#57565C;" d="M407,512H105C47.103,512,0,464.897,0,407V105C0,47.103,47.103,0,105,0h302
	c57.897,0,105,47.103,105,105v302C512,464.897,464.897,512,407,512z"/>
<path style="fill:#3E3D42;" d="M407,0H256v512h151c57.897,0,105-47.103,105-105V105C512,47.103,464.897,0,407,0z"/>
<circle style="fill:#FFFFFF;" cx="256" cy="256" r="196"/>
<path style="fill:#F2F2F2;" d="M256,60v392c108.248,0,196-87.752,196-196S364.248,60,256,60z"/>
<rect x="166" y="241" style="fill:#FF6849;" width="90" height="30"/>
<polygon style="fill:#3E3D42;" points="271,346 241,346 241,252.675 296.196,134.306 323.385,146.985 271,259.325 "/></symbol>
<symbol id='weather' viewBox="0 0 512 512"><path style="fill:#00C3FF;" d="M407,512H105C47.103,512,0,464.897,0,407V105C0,47.103,47.103,0,105,0h302
	c57.897,0,105,47.103,105,105v302C512,464.897,464.897,512,407,512z"/>
<path style="fill:#00AAF0;" d="M407,0H256v512h151c57.897,0,105-47.103,105-105V105C512,47.103,464.897,0,407,0z"/>
<circle style="fill:#FFEA84;" cx="166" cy="211" r="80"/>
<path style="fill:#FFFFFF;" d="M356,241c-7.617,0-14.895,1.434-21.599,4.023C326.997,208.496,294.711,181,256,181
	c-44.183,0-80,35.817-80,80c0,3.718,0.274,7.37,0.765,10.952C156.343,276.213,141,294.313,141,316c0,24.853,20.147,45,45,45
	c17.904,0,146.029,0,170,0c33.137,0,60-26.863,60-60S389.137,241,356,241z"/>
<path style="fill:#F2F2F2;" d="M356,241c-7.617,0-14.895,1.434-21.599,4.023C326.997,208.496,294.711,181,256,181v180
	c40.947,0,86.643,0,100,0c33.137,0,60-26.863,60-60S389.137,241,356,241z"/></symbol>
</svg>